<svg width="26" height="25" viewBox="0 0 26 25" fill="none" xmlns="http://www.w3.org/2000/svg">
<g filter="url(#filter0_d_1085_47)">
<path fill-rule="evenodd" clip-rule="evenodd" d="M21.0667 8.5215C21.0667 9.09859 21.0079 9.67489 20.8925 10.2366C20.78 10.785 20.6133 11.3234 20.395 11.8381C20.1817 12.3437 19.9171 12.8309 19.6079 13.2853C19.3033 13.7368 18.9524 14.1603 18.567 14.5465C18.1807 14.9309 17.7557 15.2808 17.3044 15.5867C16.8486 15.8937 16.3607 16.1579 15.8548 16.3723C15.3393 16.5894 14.7997 16.7559 14.2518 16.8682C13.6893 16.9839 13.1109 17.043 12.5329 17.043C11.9546 17.043 11.3762 16.9839 10.8145 16.8682C10.2658 16.7559 9.72615 16.5894 9.21112 16.3723C8.70527 16.1579 8.21689 15.8937 7.76104 15.5867C7.30977 15.2808 6.88475 14.9309 6.49931 14.5465C6.11347 14.1603 5.7626 13.7368 5.45759 13.2853C5.15007 12.8309 4.88504 12.3437 4.67088 11.8381C4.45251 11.3234 4.28544 10.785 4.17251 10.2366C4.05835 9.67489 4 9.09859 4 8.5215C4 7.94398 4.05832 7.36645 4.17255 6.80594C4.28547 6.25753 4.45254 5.71829 4.67091 5.20443C4.88508 4.69848 5.15011 4.21084 5.45762 3.75645C5.76264 3.3046 6.11351 2.88182 6.49935 2.49527C6.88479 2.11079 7.30981 1.76173 7.76108 1.45632C8.21693 1.14798 8.70531 0.883798 9.21115 0.669077C9.72619 0.451421 10.2658 0.284594 10.8146 0.173098C11.3763 0.0582662 11.9546 0 12.533 0C13.1109 0 13.6893 0.0582662 14.2518 0.173098C14.7997 0.284627 15.3393 0.451454 15.8548 0.669077C16.3607 0.883765 16.8486 1.14798 17.3045 1.45632C17.7557 1.76173 18.1808 2.11079 18.567 2.49527C18.9525 2.88182 19.3033 3.3046 19.6079 3.75645C19.9171 4.21084 20.1817 4.69851 20.395 5.20443C20.6133 5.71829 20.78 6.25753 20.8925 6.80594C21.0079 7.36645 21.0667 7.94398 21.0667 8.5215ZM9.42358 1.93938C7.39138 2.89765 5.87463 4.76754 5.40168 7.02108C5.5938 7.02274 8.63063 7.06103 12.1295 6.13271C10.8682 3.89498 9.52068 2.06882 9.42358 1.93938ZM12.7333 7.25328C8.98106 8.37501 5.38044 8.2943 5.25128 8.28933C5.24918 8.36754 5.24543 8.44325 5.24543 8.52149C5.24543 10.3909 5.95172 12.0952 7.11261 13.3839C7.11011 13.3801 9.10441 9.84714 13.0371 8.57726C13.1321 8.54564 13.2288 8.51733 13.3246 8.48988C13.1417 8.07631 12.9421 7.66188 12.7333 7.25328ZM17.3457 3.05992C16.0627 1.93022 14.378 1.24496 12.5329 1.24496C11.9408 1.24496 11.3662 1.31654 10.8157 1.44884C10.9249 1.59533 12.2937 3.40862 13.54 5.69374C16.2898 4.66436 17.3277 3.08653 17.3457 3.05992ZM13.8214 9.69569C13.8051 9.70107 13.7889 9.7057 13.773 9.7115C9.47329 11.2083 8.06916 14.2248 8.05396 14.2577C9.29114 15.2184 10.8429 15.798 12.533 15.798C13.5422 15.798 14.5035 15.5929 15.3781 15.2213C15.2702 14.5856 14.8468 12.357 13.8214 9.69569ZM16.6052 14.5564C18.2415 13.4538 19.4037 11.7029 19.7279 9.67485C19.5779 9.62659 17.539 8.98206 15.1868 9.35864C16.1427 11.9817 16.531 14.1179 16.6052 14.5564ZM14.101 6.77808C14.2701 7.12511 14.4339 7.47831 14.5851 7.83327C14.6389 7.96061 14.6914 8.08545 14.7427 8.21025C17.2461 7.89567 19.7125 8.42494 19.8179 8.44655C19.8013 6.72148 19.1833 5.13825 18.1608 3.89875C18.147 3.91827 16.9782 5.60468 14.101 6.77808Z" fill="white"/>
</g>
<defs>
<filter id="filter0_d_1085_47" x="0" y="0" width="25.0667" height="25.043" filterUnits="userSpaceOnUse" color-interpolation-filters="sRGB">
<feFlood flood-opacity="0" result="BackgroundImageFix"/>
<feColorMatrix in="SourceAlpha" type="matrix" values="0 0 0 0 0 0 0 0 0 0 0 0 0 0 0 0 0 0 127 0" result="hardAlpha"/>
<feOffset dy="4"/>
<feGaussianBlur stdDeviation="2"/>
<feComposite in2="hardAlpha" operator="out"/>
<feColorMatrix type="matrix" values="0 0 0 0 0 0 0 0 0 0 0 0 0 0 0 0 0 0 0.25 0"/>
<feBlend mode="normal" in2="BackgroundImageFix" result="effect1_dropShadow_1085_47"/>
<feBlend mode="normal" in="SourceGraphic" in2="effect1_dropShadow_1085_47" result="shape"/>
</filter>
</defs>
</svg>
