<svg width="48" height="48" viewBox="0 0 48 48" fill="none" xmlns="http://www.w3.org/2000/svg">
<path d="M28.3117 23.6447C28.0709 23.6447 27.8473 23.5785 27.6487 23.472V23.4748C27.6487 23.8537 27.5014 24.2094 27.2343 24.4759C26.9671 24.7431 26.6116 24.8903 26.2332 24.8903C25.9889 24.8903 25.7625 24.8225 25.5617 24.7131C25.5415 25.0597 25.4029 25.3837 25.1558 25.6311C24.8886 25.8982 24.5331 26.0455 24.1545 26.0455C23.4022 26.0455 22.7913 25.4541 22.7473 24.7129C22.5145 24.8387 22.2513 24.9047 21.9799 24.8873C21.2398 24.8387 20.6603 24.1993 20.6603 23.4312V17.0646L19.9353 18.3206C19.6592 18.8009 19.1423 19.0992 18.5858 19.0992C18.3147 19.0992 18.0468 19.028 17.8095 18.8921C17.5141 18.7208 17.3028 18.4459 17.2149 18.117C17.1265 17.7878 17.1722 17.4436 17.3431 17.1486C17.3433 17.1486 19.715 13.0414 19.8597 12.7891C19.8769 12.7512 19.9259 12.6412 19.9676 12.5474C20.0075 12.4579 20.0416 12.366 20.0744 12.2737C20.7896 10.2544 22.5607 9.00004 24.6966 9.00004C27.4703 9.00004 29.7268 11.4469 29.7268 14.4546L29.727 22.229C29.727 22.6074 29.58 22.9629 29.3131 23.2303C29.0459 23.4975 28.6904 23.6447 28.3116 23.6447L28.3117 23.6447ZM24.6966 9.75218C22.8613 9.75218 21.3984 10.7888 20.7833 12.5252C20.744 12.6355 20.703 12.7457 20.6552 12.8532C20.5164 13.1644 20.5164 13.1644 20.4773 13.2091L20.4721 13.2047C20.2784 13.5701 19.7031 14.5664 17.9943 17.5251C17.9241 17.6464 17.9055 17.7873 17.9413 17.922C17.9776 18.0568 18.0645 18.1704 18.1849 18.2399C18.5586 18.4545 19.0703 18.316 19.2833 17.9449L20.7108 15.4734C20.7961 15.3262 20.9685 15.2539 21.1339 15.2986C21.2983 15.3427 21.4126 15.4918 21.4126 15.6619V23.4315C21.4126 23.798 21.6892 24.1144 22.0292 24.1368C22.2252 24.1472 22.408 24.0815 22.5454 23.9443C22.6702 23.8195 22.739 23.6531 22.739 23.4753V18.3939C22.739 18.1861 22.9075 18.0176 23.1153 18.0176C23.3231 18.0176 23.4915 18.1859 23.4915 18.3939L23.4913 24.6303C23.4913 24.9959 23.7889 25.2935 24.1545 25.2935C24.3321 25.2935 24.499 25.2247 24.6241 25.0998C24.7489 24.9747 24.8177 24.8079 24.8177 24.6303V18.3939C24.8177 18.1861 24.9859 18.0176 25.194 18.0176C25.4018 18.0176 25.5702 18.1858 25.5702 18.3939L25.57 23.4168V23.4752C25.57 23.8407 25.8675 24.1382 26.2334 24.1382C26.4108 24.1382 26.5772 24.0692 26.703 23.9438C26.8278 23.8192 26.8966 23.6529 26.8966 23.475V18.3936C26.8966 18.1858 27.0649 18.0174 27.2729 18.0174C27.4807 18.0174 27.6491 18.1856 27.6491 18.3936L27.6487 22.2292C27.6487 22.595 27.9462 22.8926 28.3116 22.8926C28.4895 22.8926 28.6558 22.8236 28.7807 22.699C28.906 22.5736 28.9746 22.4068 28.9746 22.2292L28.9748 14.4548C28.9748 11.8621 27.0557 9.75226 24.6966 9.75226L24.6966 9.75218Z" fill="#4CAF4F"/>
<path d="M29.7266 14.4547C29.7266 11.447 27.47 8.99957 24.6963 8.99957C22.5605 8.99969 20.7895 10.2548 20.0742 12.274C20.0415 12.3662 20.0075 12.458 19.9678 12.5474C19.9261 12.6412 19.8766 12.7517 19.8594 12.7896C19.7118 13.0469 17.343 17.149 17.3428 17.149C17.1722 17.4438 17.1266 17.7878 17.2149 18.1168C17.3027 18.4457 17.5141 18.7209 17.8096 18.8922C18.0468 19.0281 18.3148 19.0992 18.586 19.0992C19.1424 19.0991 19.6594 18.8011 19.9356 18.3209L20.6602 17.065V23.4312C20.6602 24.1992 21.2397 24.8385 21.9795 24.8873C22.2509 24.9047 22.5143 24.8383 22.7471 24.7125C22.7911 25.4536 23.4021 26.0454 24.1543 26.0455C24.533 26.0455 24.8891 25.8986 25.1563 25.6314C25.4033 25.3841 25.5412 25.0599 25.5615 24.7134C25.7623 24.8228 25.9891 24.8902 26.2334 24.8902C26.6117 24.8901 26.9673 24.7432 27.2344 24.4761C27.5015 24.2098 27.6484 23.8539 27.6484 23.4752V23.4722C27.847 23.5787 28.0708 23.6451 28.3115 23.6451C28.6904 23.6451 29.0463 23.4972 29.3135 23.23C29.5802 22.9627 29.7266 22.6073 29.7266 22.2291V14.4547ZM25.5625 18.3179C25.5274 18.1465 25.376 18.0173 25.1943 18.0172L25.1182 18.025C24.9465 18.06 24.8174 18.2122 24.8174 18.3941V24.6304C24.8173 24.808 24.7489 24.9751 24.624 25.1002C24.499 25.2249 24.3319 25.2935 24.1543 25.2935C23.7888 25.2934 23.4913 24.9959 23.4912 24.6304V18.3941C23.4912 18.1861 23.323 18.0172 23.1152 18.0172L23.0391 18.025C22.8923 18.0551 22.7772 18.1712 22.7471 18.3179L22.7393 18.3941V23.4752C22.7393 23.653 22.6698 23.819 22.5449 23.9439C22.4076 24.081 22.2253 24.1476 22.0293 24.1373C21.6893 24.1149 21.4131 23.7978 21.4131 23.4312V15.6617C21.413 15.4917 21.2982 15.3424 21.1338 15.2984C20.9686 15.2538 20.7963 15.3262 20.711 15.4732L19.2832 17.9449C19.0702 18.3159 18.5582 18.4544 18.1846 18.2398C18.0645 18.1704 17.9777 18.0569 17.9414 17.9224C17.9056 17.7877 17.9239 17.6463 17.9942 17.525C19.7027 14.5668 20.2779 13.5702 20.4717 13.2047L20.4776 13.2095C20.5167 13.1648 20.5165 13.1643 20.6553 12.8531C20.7031 12.7457 20.7439 12.6352 20.7832 12.525C21.3983 10.7888 22.8612 9.75262 24.6963 9.7525C26.9817 9.7525 28.8551 11.7324 28.9697 14.2134L28.9746 14.4547V22.2291C28.9746 22.4067 28.9056 22.5735 28.7803 22.6988C28.6554 22.8233 28.4893 22.8922 28.3115 22.8922C27.9462 22.8921 27.6484 22.5949 27.6484 22.2291L27.6494 18.3941C27.6494 18.1861 27.4803 18.0172 27.2725 18.0172L27.1973 18.025C27.0256 18.0599 26.8965 18.2122 26.8965 18.3941V23.4752C26.8965 23.653 26.8279 23.8193 26.7031 23.9439C26.5773 24.0693 26.4108 24.1382 26.2334 24.1382C25.8675 24.1382 25.5703 23.8406 25.5703 23.4752V18.3941L25.5625 18.3179Z" fill="#4CAF4F"/>
<path d="M13.5291 29.0481L18.9888 25.7728C19.6471 25.3775 20.4941 25.5455 20.9162 26.1554C21.0703 26.3776 21.149 26.6365 21.1613 26.9002C21.3648 26.7939 21.5863 26.7362 21.8117 26.7362C21.9272 26.7362 22.0431 26.7506 22.1576 26.7791C22.5244 26.8707 22.8335 27.0999 23.0279 27.4241C23.2225 27.7488 23.2793 28.1292 23.1876 28.4956C23.1031 28.8347 22.8969 29.12 22.6102 29.3158C22.8107 29.434 22.9836 29.5954 23.1066 29.8009C23.3012 30.1255 23.358 30.5058 23.2666 30.8726C23.1749 31.239 22.9457 31.5481 22.621 31.7429L22.6192 31.7441C22.8161 31.8622 22.986 32.0219 23.1076 32.2243C23.3024 32.5489 23.3592 32.9294 23.2675 33.2962C23.1756 33.6628 22.9464 33.9719 22.6222 34.1665L15.9558 38.1658C14.7116 38.912 13.2733 39.1695 11.9064 38.8903C10.5272 38.6085 9.38497 37.8158 8.69046 36.658C7.59138 34.8262 7.75609 32.662 9.11949 31.0102C9.18192 30.9348 9.24341 30.858 9.29925 30.7784C9.35839 30.6943 9.42742 30.5953 9.45098 30.5614C9.5921 30.3093 11.8949 26.1604 11.8946 26.1609C12.1272 25.7413 12.563 25.5038 13.0125 25.504C13.2222 25.504 13.4349 25.5556 13.6312 25.6645C13.8682 25.7969 14.0673 25.9898 14.2065 26.2224C14.4928 26.6995 14.5029 27.2965 14.2334 27.7797L13.5291 29.0481ZM13.5618 26.6092C13.4888 26.4874 13.3884 26.3903 13.2657 26.3215C13.012 26.1811 12.6925 26.2725 12.5528 26.5253C10.905 29.4938 10.3434 30.5055 10.1266 30.8655L10.1315 30.8667C10.1134 30.927 10.1134 30.927 9.91502 31.2104C9.84764 31.3063 9.77437 31.3984 9.69969 31.4891C8.52732 32.9095 8.39119 34.697 9.33521 36.271C9.91997 37.2459 10.8864 37.9143 12.0566 38.1532C13.2395 38.3938 14.4863 38.1699 15.5684 37.5207L22.2355 33.5212C22.3876 33.43 22.4951 33.2851 22.538 33.1134C22.5808 32.9418 22.5542 32.7635 22.4628 32.6113C22.2748 32.298 21.8665 32.195 21.5532 32.3837L18.2642 34.3569C18.0861 34.4638 17.8548 34.4063 17.748 34.228C17.6411 34.0499 17.6988 33.8187 17.8769 33.7118L21.1661 31.7386L22.2343 31.0978C22.3865 31.0064 22.4941 30.8615 22.537 30.6902C22.5799 30.5185 22.5533 30.3399 22.4619 30.1879C22.2736 29.8744 21.8653 29.7723 21.5522 29.9604L17.1948 32.5743C17.0163 32.6815 16.7856 32.6236 16.6787 32.4455C16.5717 32.2673 16.6296 32.0362 16.8075 31.9293L22.1554 28.7211C22.3076 28.6297 22.415 28.4851 22.4579 28.3133C22.5007 28.1418 22.4741 27.9635 22.3829 27.8113C22.2918 27.6593 22.1469 27.5519 21.9751 27.509C21.8024 27.4661 21.6248 27.4927 21.4731 27.5837L20.4831 28.1776C20.4829 28.1776 20.4829 28.1779 20.4826 28.1779H20.4824L16.1252 30.7918C15.9467 30.8993 15.7158 30.8413 15.6091 30.663C15.5021 30.4849 15.56 30.2537 15.7379 30.1468L20.0953 27.5328C20.2475 27.4414 20.3552 27.2965 20.398 27.1252C20.4452 26.9372 20.4094 26.745 20.2977 26.5838C20.104 26.3037 19.6898 26.2292 19.3758 26.4179L12.7136 30.4147C12.5678 30.5018 12.3809 30.4806 12.2587 30.3626C12.1362 30.2443 12.1086 30.0584 12.1911 29.9098L13.5764 27.4138C13.7154 27.1643 13.71 26.8562 13.5618 26.6093L13.5618 26.6092Z" fill="#4CAF4F"/>
<path d="M11.9067 38.8907C13.2733 39.1698 14.7115 38.912 15.9555 38.1661L22.6225 34.1661C22.9465 33.9715 23.1761 33.6624 23.268 33.296C23.3595 32.9294 23.3024 32.5492 23.1078 32.2247C22.9863 32.0224 22.8164 31.8622 22.6195 31.7442L22.6215 31.7432C22.9461 31.5484 23.1754 31.2384 23.267 30.8721C23.3582 30.5055 23.3013 30.1253 23.1069 29.8009C22.9839 29.5954 22.8103 29.4338 22.6098 29.3155C22.8965 29.1197 23.1033 28.8342 23.1879 28.4952C23.2794 28.1289 23.2223 27.7484 23.0278 27.4239C22.8334 27.0999 22.5243 26.871 22.1576 26.7794C22.0432 26.7509 21.9273 26.7364 21.8119 26.7364C21.5865 26.7364 21.3651 26.7942 21.1615 26.9005C21.1493 26.6368 21.0705 26.3775 20.9164 26.1554C20.4942 25.5454 19.6469 25.3772 18.9887 25.7725L13.5287 29.0479L14.2338 27.7794C14.5031 27.2963 14.4925 26.6997 14.2065 26.2227C14.0672 25.9902 13.8683 25.7965 13.6313 25.6641C13.435 25.5553 13.2218 25.504 13.0121 25.504C12.5628 25.5039 12.1274 25.7418 11.8949 26.1612C11.8805 26.1873 9.59127 30.3103 9.4506 30.5616C9.42683 30.5958 9.35818 30.6946 9.29924 30.7784C9.24346 30.8579 9.18191 30.9345 9.11955 31.0098C7.75615 32.6616 7.59175 34.8265 8.69084 36.6583C9.38536 37.8159 10.5276 38.609 11.9067 38.8907ZM15.5688 37.5206C14.4868 38.1698 13.2398 38.3938 12.057 38.1534C10.8869 37.9145 9.92012 37.2455 9.33537 36.2706C8.39156 34.6967 8.52747 32.9097 9.69963 31.4893C9.77431 31.3986 9.84806 31.3059 9.91545 31.21C10.1135 30.927 10.1131 30.9266 10.1313 30.8663L10.1264 30.8653C10.3432 30.5053 10.9054 29.494 12.5531 26.5255C12.6928 26.2727 13.0123 26.181 13.266 26.3214C13.3887 26.3902 13.4889 26.4877 13.5619 26.6095C13.71 26.8563 13.7155 27.1647 13.5766 27.4141L12.1908 29.9102C12.1087 30.0588 12.1368 30.2442 12.2592 30.3624C12.3813 30.4802 12.5676 30.5019 12.7133 30.4151L19.3754 26.418C19.6894 26.2293 20.1036 26.304 20.2973 26.5841C20.4089 26.7452 20.445 26.9371 20.3979 27.1251C20.355 27.2963 20.2473 27.4409 20.0951 27.5323L15.7377 30.1466C15.5599 30.2536 15.5019 30.4851 15.6088 30.6632C15.7155 30.8415 15.9468 30.8995 16.1254 30.7921L21.4731 27.5841C21.6247 27.4932 21.8024 27.466 21.975 27.5089C22.1468 27.5517 22.292 27.6596 22.3832 27.8116C22.4742 27.9637 22.5003 28.1422 22.4574 28.3136C22.4145 28.485 22.3076 28.6294 22.1557 28.7208L16.808 31.9288C16.6301 32.0357 16.5722 32.2673 16.6791 32.4454C16.7861 32.6234 17.0162 32.6814 17.1947 32.5743L21.5522 29.96C21.8652 29.7721 22.2741 29.8741 22.4623 30.1876C22.5537 30.3395 22.5804 30.5188 22.5375 30.6905C22.4946 30.8616 22.3867 31.0063 22.2348 31.0977L17.8774 33.712C17.7215 33.8056 17.657 33.9942 17.7153 34.1593L17.7485 34.2276C17.8552 34.406 18.086 34.4635 18.2641 34.3565L21.5531 32.3839C21.8665 32.1952 22.2753 32.2981 22.4633 32.6114C22.5546 32.7635 22.5804 32.942 22.5375 33.1134C22.4946 33.285 22.3879 33.4304 22.2358 33.5216L15.5688 37.5206Z" fill="#4CAF4F"/>
<path d="M39.6181 36.6577C38.9238 37.8157 37.7819 38.6083 36.4025 38.8901C35.0353 39.1688 33.5974 38.9117 32.353 38.1656L25.686 34.1661C25.3616 33.9715 25.1321 33.6624 25.0402 33.2953C24.949 32.9289 25.006 32.5484 25.2004 32.2243C25.3217 32.0216 25.4918 31.8619 25.689 31.7439L25.6871 31.7427C25.3627 31.5481 25.1333 31.239 25.0419 30.8724C24.95 30.5058 25.007 30.125 25.2016 29.8004C25.3269 29.5919 25.4987 29.4289 25.6947 29.3132C25.4101 29.1174 25.2051 28.8331 25.1208 28.4957C25.0289 28.1288 25.0859 27.7483 25.2805 27.4242C25.4749 27.0997 25.7842 26.8705 26.1508 26.7789C26.2653 26.7501 26.3815 26.736 26.4965 26.736C26.7222 26.7362 26.9436 26.7935 27.1472 26.9C27.1597 26.6363 27.2381 26.3774 27.3922 26.1552C27.8146 25.5458 28.6609 25.3771 29.3201 25.7726L34.7796 29.0474L34.0759 27.7799C33.8059 27.296 33.8158 26.699 34.1021 26.2216C34.2415 25.9893 34.4409 25.7964 34.679 25.6628C34.8748 25.5544 35.0869 25.5031 35.296 25.5031C35.7453 25.5033 36.1817 25.7403 36.4139 26.1599C37.2235 27.6185 38.7511 30.3694 38.8585 30.5614C38.8813 30.5946 38.9504 30.6936 39.0095 30.7777C39.0658 30.8575 39.1266 30.9339 39.1895 31.0097C40.5527 32.6622 40.7171 34.8262 39.6181 36.6578L39.6181 36.6577ZM38.6091 31.4892C38.5341 31.3985 38.4606 31.3059 38.3937 31.2105C38.1902 30.9217 38.185 30.9141 38.1697 30.8385C37.9317 30.4448 37.3512 29.3997 35.7555 26.5249C35.6156 26.2726 35.2975 26.1805 35.0443 26.3204C34.9196 26.3901 34.8195 26.4874 34.7465 26.6093C34.5985 26.8559 34.5928 27.1641 34.7326 27.4143L36.1174 29.9095C36.2001 30.0584 36.1725 30.2441 36.0503 30.3623C35.9282 30.4808 35.7416 30.5016 35.5951 30.4144L28.9329 26.4177C28.6189 26.2295 28.2049 26.3032 28.0108 26.5836C27.8991 26.7447 27.8635 26.937 27.9102 27.1247C27.9531 27.2963 28.0607 27.4409 28.2132 27.5323C28.2136 27.5326 28.2139 27.533 28.2143 27.5333L32.5703 30.1465C32.7484 30.2535 32.8062 30.4844 32.6992 30.6627C32.5922 30.8406 32.3616 30.8988 32.183 30.7916L26.8352 27.5835C26.6834 27.4925 26.5048 27.4657 26.3333 27.5088C26.1613 27.5517 26.0167 27.6591 25.9255 27.8115C25.8341 27.9635 25.8077 28.1418 25.8501 28.3133C25.893 28.4849 26.0007 28.6297 26.1529 28.7212L27.1935 29.3453L31.5005 31.9293C31.6786 32.0363 31.7363 32.2672 31.6293 32.4455C31.5224 32.6234 31.2917 32.6814 31.1131 32.5744L26.7562 29.9604C26.4429 29.7719 26.0348 29.8742 25.8464 30.188C25.755 30.3402 25.7286 30.5186 25.771 30.6901C25.8139 30.8616 25.9215 31.0062 26.0739 31.0979L27.1422 31.7387L30.4308 33.7119C30.609 33.8188 30.6667 34.0497 30.5597 34.2281C30.4528 34.4059 30.2221 34.4644 30.0435 34.3569L26.7548 32.3838C26.6031 32.2928 26.4252 32.266 26.2528 32.3091C26.0813 32.352 25.9361 32.4594 25.845 32.6114C25.7538 32.7636 25.7272 32.9421 25.7696 33.1134C25.8124 33.2849 25.9201 33.4296 26.0725 33.5212L32.7395 37.5207C33.8214 38.1698 35.0691 38.3945 36.2514 38.1533C37.4213 37.9144 38.3878 37.246 38.9725 36.2711C39.9175 34.6968 39.7816 32.9091 38.6095 31.4892L38.6091 31.4892Z" fill="#4CAF4F"/>
<path d="M32.3533 38.1656C33.5976 38.9116 35.0351 39.1688 36.4021 38.8903C37.7815 38.6085 38.9236 37.8157 39.6179 36.6578C40.717 34.8262 40.5524 32.6619 39.1892 31.0094C39.1265 30.9337 39.0657 30.8576 39.0095 30.778C38.9504 30.6938 38.881 30.5944 38.8582 30.5612C38.7492 30.3663 37.2229 27.6176 36.4138 26.1598C36.1816 25.7403 35.7449 25.5038 35.2957 25.5035C35.0867 25.5036 34.875 25.5545 34.6795 25.6627C34.4414 25.7962 34.2418 25.9892 34.1023 26.2213C33.8161 26.6986 33.806 27.296 34.0759 27.7799L34.78 29.0475L29.3201 25.7731C28.661 25.3776 27.8148 25.5457 27.3924 26.1549C27.2383 26.3771 27.1597 26.6364 27.1472 26.9C26.9438 26.7936 26.7224 26.7363 26.4968 26.736C26.382 26.736 26.2656 26.7502 26.1511 26.7789C25.7845 26.8706 25.4744 27.1 25.28 27.4244C25.0857 27.7485 25.029 28.1291 25.1209 28.4957C25.2052 28.8331 25.4105 29.1173 25.6951 29.3131C25.4991 29.4288 25.3273 29.592 25.2019 29.8004C25.0073 30.125 24.9499 30.5061 25.0418 30.8727C25.1332 31.2392 25.3629 31.5482 25.6873 31.7428L25.6892 31.7438C25.492 31.8618 25.3213 32.0216 25.2 32.2242C25.0057 32.5484 24.9487 32.9292 25.0398 33.2955C25.1317 33.6626 25.3619 33.9711 25.6863 34.1656L32.3533 38.1656ZM36.2517 38.153C35.0697 38.3942 33.8218 38.17 32.74 37.5211L26.073 33.5211C25.9207 33.4295 25.8122 33.2852 25.7693 33.1139C25.7269 32.9426 25.7533 32.7632 25.8445 32.611C25.9357 32.4591 26.0813 32.3521 26.2527 32.3092C26.4251 32.2661 26.603 32.2926 26.7547 32.3834L30.0437 34.3571C30.2222 34.4643 30.4524 34.4058 30.5593 34.2281C30.6663 34.0498 30.6086 33.8185 30.4304 33.7115L26.074 31.0983C25.9216 31.0066 25.8141 30.8616 25.7713 30.6901C25.7289 30.5186 25.7551 30.3403 25.8465 30.1881C26.0349 29.8743 26.4433 29.7721 26.7566 29.9606L31.1131 32.5748C31.2916 32.6817 31.5227 32.6236 31.6297 32.4459C31.7366 32.2676 31.6787 32.0363 31.5008 31.9293L26.1531 28.7213C26.0009 28.6299 25.8932 28.4846 25.8504 28.3131C25.808 28.1416 25.8342 27.9631 25.9256 27.8112C26.0167 27.6589 26.1619 27.5513 26.3338 27.5084C26.505 27.4655 26.6832 27.4929 26.8347 27.5836L32.1834 30.7916C32.3619 30.8986 32.5921 30.8404 32.699 30.6627C32.806 30.4844 32.7482 30.2531 32.5701 30.1461L28.2146 27.5328L28.2136 27.5319C28.0612 27.4404 27.9528 27.2961 27.9099 27.1246C27.8634 26.937 27.899 26.7447 28.0105 26.5836C28.2047 26.3033 28.6193 26.2294 28.9334 26.4176L35.5955 30.4147C35.742 30.5016 35.9286 30.4803 36.0506 30.3619C36.1725 30.2437 36.1996 30.0585 36.117 29.9098L34.7322 27.4147C34.5925 27.1644 34.5989 26.8557 34.7468 26.609C34.8199 26.4874 34.9202 26.3896 35.0447 26.3199C35.2979 26.1804 35.6158 26.2729 35.7556 26.525C37.3513 29.3997 37.9317 30.4448 38.1697 30.8385C38.185 30.9141 38.1899 30.9219 38.3933 31.2106L38.6092 31.4889C39.7812 32.9088 39.9174 34.6968 38.9724 36.2711C38.3878 37.2459 37.4215 37.914 36.2517 38.153Z" fill="#4CAF4F"/>
</svg>
