<svg width="36" height="31" viewBox="0 0 36 31" fill="none" xmlns="http://www.w3.org/2000/svg">
<path d="M0.000474596 29.6471C0.000474596 29.9592 0.253724 30.2128 0.566149 30.2128H35.0139C35.3259 30.2128 35.5796 29.9596 35.5796 29.6471C35.5796 29.3351 35.3263 29.0815 35.0139 29.0815H33.9682V12.8402C33.9682 12.5281 33.715 12.2745 33.4025 12.2745L24.1668 12.2749V0.565762C24.1668 0.367742 24.0635 0.184709 23.8946 0.0821389C23.7262 -0.0208145 23.5156 -0.0271258 23.3404 0.0639933L12.8401 5.53098C12.6527 5.62841 12.5359 5.8217 12.5359 6.03275V16.2604H2.37388C2.06186 16.2604 1.8082 16.5137 1.8082 16.8261V29.0816H0.564887C0.252866 29.0812 0 29.3344 0 29.6468L0.000474596 29.6471ZM24.167 20.8422H32.8374V29.0819L24.167 29.0815V20.8422ZM24.167 16.9113H32.8374V19.7113L24.167 19.7109V16.9113ZM24.167 13.4056H32.8374V15.7808H24.167V13.4056ZM13.6667 6.37622L23.0353 1.49818V29.081H13.6667V6.37622ZM5.73588 24.5635C5.73588 23.3895 6.66603 22.4341 7.80959 22.4341C8.95314 22.4341 9.88371 23.3891 9.88371 24.5635V29.0817H5.73588V24.5635ZM2.93952 17.3916H12.5358V29.0815H11.015V24.5633C11.015 22.7657 9.57762 21.303 7.80959 21.303C6.04236 21.303 4.60495 22.7653 4.60495 24.5633V29.0815H2.93952V17.3916Z" fill="#103E13"/>
</svg>
